<svg xmlns="http://www.w3.org/2000/svg" viewBox="0 0 512 512">
  <defs>
    <linearGradient id="grad" x1="0%" y1="0%" x2="100%" y2="100%">
      <stop offset="0%" style="stop-color:#4a9f6e;stop-opacity:1" />
      <stop offset="100%" style="stop-color:#3a7f5e;stop-opacity:1" />
    </linearGradient>
  </defs>

  <!-- Background circle -->
  <circle cx="256" cy="256" r="240" fill="#0a0a0a"/>
  <circle cx="256" cy="256" r="220" fill="url(#grad)" opacity="0.1"/>

  <!-- Bird body -->
  <ellipse cx="240" cy="280" rx="100" ry="80" fill="#4a9f6e"/>

  <!-- Bird head -->
  <circle cx="310" cy="210" r="60" fill="#4a9f6e"/>

  <!-- Eye -->
  <circle cx="330" cy="200" r="14" fill="#0a0a0a"/>
  <circle cx="334" cy="196" r="5" fill="#ffffff"/>

  <!-- Beak -->
  <path d="M370 210 L410 200 L370 220 Z" fill="#f0a030"/>

  <!-- Wing -->
  <path d="M180 260 Q140 220 160 180 Q200 220 240 240 Z" fill="#3d8a5a"/>

  <!-- Tail feathers -->
  <path d="M140 300 Q100 280 90 250" fill="none" stroke="#3d8a5a" stroke-width="16" stroke-linecap="round"/>
  <path d="M150 310 Q110 300 95 280" fill="none" stroke="#4a9f6e" stroke-width="12" stroke-linecap="round"/>

  <!-- Sound waves (chirp!) -->
  <path d="M400 180 Q420 170 410 155" fill="none" stroke="#4a9f6e" stroke-width="8" stroke-linecap="round" opacity="0.8"/>
  <path d="M405 200 Q430 190 425 170" fill="none" stroke="#4a9f6e" stroke-width="6" stroke-linecap="round" opacity="0.5"/>
  <path d="M408 220 Q440 210 438 188" fill="none" stroke="#4a9f6e" stroke-width="4" stroke-linecap="round" opacity="0.3"/>
</svg>
